<svg width="206" height="68" viewBox="0 0 206 68" fill="none" xmlns="http://www.w3.org/2000/svg">
<rect width="205.581" height="68" rx="15" fill="url(#paint0_linear_3_3)"/>
<path d="M54.2427 27.7271C54.2427 50.4992 54.2427 50.7101 59.514 51.5535C64.5745 52.6078 64.7853 52.1861 64.7853 41.6434C64.7853 33.631 65.8396 29.8357 68.5807 27.3054C77.6473 19.0822 83.5512 26.2512 80.8101 42.6977C79.545 50.9209 79.545 51.1318 85.8706 51.1318H92.1962V37.4264C92.1962 26.462 91.3528 22.8775 87.9791 19.5039C83.5512 15.076 72.376 13.8109 70.0566 17.3954C67.3155 21.8233 64.7853 19.293 64.7853 12.124C64.7853 5.58761 64.1528 4.7442 59.514 4.7442H54.2427V27.7271Z" fill="#00162B" fill-opacity="0.72"/>
<path d="M17.7653 17.8171C8.69865 24.7753 8.9095 41.8544 17.9762 49.0233C26.4103 55.7706 45.8087 53.2404 45.8087 45.6497C45.8087 42.6978 44.3328 42.4869 36.1095 43.752C29.7839 44.5954 25.5669 44.1737 23.4583 42.4869C17.9762 37.8481 20.5064 36.3722 34.2118 36.3722C47.4956 36.3722 47.9173 36.1613 47.9173 31.1009C47.9173 22.6668 39.0614 15.2869 29.3622 15.2869C24.9343 15.2869 19.663 16.552 17.7653 17.8171ZM34.4227 24.5644C39.9049 28.5706 37.3746 30.4683 27.6754 29.6249C20.0847 28.9923 19.8738 28.7815 23.4583 25.197C27.8862 20.7691 29.1514 20.7691 34.4227 24.5644Z" fill="#00162B" fill-opacity="0.72"/>
<path d="M97.4676 19.9256C103.161 38.2698 107.799 47.3365 112.438 49.445C118.764 52.3969 116.866 55.3489 108.854 55.3489C100.209 55.3489 101.052 62.5179 109.697 63.3613C122.137 64.8372 129.517 53.2403 135.632 22.0341C136.897 15.9194 136.475 15.2869 131.626 15.2869C126.987 15.2869 126.144 16.552 123.824 26.2512C118.975 46.4931 116.233 46.4931 110.54 26.8838C108.01 17.8171 106.745 16.3411 101.895 15.7086C96.6241 15.076 96.2024 15.4977 97.4676 19.9256Z" fill="#00162B" fill-opacity="0.72"/>
<path d="M143.644 18.2388C140.482 20.769 140.271 21.8233 142.168 23.9318C144.277 26.0403 145.964 26.0403 150.181 24.1427C154.187 22.245 156.928 22.245 159.88 23.721C166.627 27.5163 164.519 30.0465 154.609 30.0465C148.705 30.0465 143.644 31.5225 140.692 33.8419C130.782 41.8543 141.747 55.5597 155.452 52.1861C158.404 51.5535 163.886 50.921 167.682 51.1318L174.429 51.3427V37.6372C174.429 26.2512 173.585 23.0884 169.79 19.5039C164.308 14.4434 149.97 13.8109 143.644 18.2388ZM163.465 39.9566C162.621 44.1737 152.079 46.4931 148.705 43.1194C145.12 39.5349 148.916 36.3721 156.717 36.3721C162.621 36.3721 164.097 37.2155 163.465 39.9566Z" fill="#051321" fill-opacity="0.69"/>
<path d="M185.393 19.9257C180.122 25.197 184.128 34.2637 191.719 34.2637C193.617 34.2637 196.358 32.366 197.623 30.0466C202.261 21.6125 192.141 13.1784 185.393 19.9257Z" fill="#5A9CFF"/>
<defs>
<linearGradient id="paint0_linear_3_3" x1="3.95349" y1="34.7907" x2="205.581" y2="34.7907" gradientUnits="userSpaceOnUse">
<stop stop-color="#3B82F6"/>
<stop offset="0.505208" stop-color="#3B82F6"/>
<stop offset="1" stop-color="#D3E7FF"/>
</linearGradient>
</defs>
</svg>
